<?xml version="1.0" encoding="UTF-8"?>
<svg id="Layer_1" data-name="Layer 1" xmlns="http://www.w3.org/2000/svg" version="1.1" viewBox="0 0 183 62.3">
  <path d="M61.9,22.4h-2.5v17.6h2.5v-17.6Z" style="fill: #000; stroke-width: 0px;"/>
  <path d="M116,33.3h5.8c0,2.9-2.5,5-6,5s-6.6-2.9-6.6-7.1,2.7-7.1,6.6-7.1,5.2,1.7,6,4.6h0c0,0,2.3-.5,2.3-.5h0c-.8-3.7-4.1-6.2-8.2-6.2h-.1c-2.4,0-4.6.9-6.2,2.5-1.7,1.7-2.6,4.1-2.6,6.7,0,2.6.9,4.9,2.6,6.7,1.6,1.6,3.8,2.5,6.2,2.5h.1c5,0,8.3-3,8.3-7.5v-1.6h-8.1v2h0Z" style="fill: #000; stroke-width: 0px;"/>
  <path d="M61.9,46.5h9.1v-2.2h-11.6v17.5h2.5v-7h8.1v-2.1h-8.1v-6.2Z" style="fill: #000; stroke-width: 0px;"/>
  <path d="M110.9,44.3h-2.5v17.6h2.5v-17.6Z" style="fill: #000; stroke-width: 0px;"/>
  <path d="M117.8,44.3h-2.5v17.5h10.8v-2.2h-8.3v-15.3Z" style="fill: #000; stroke-width: 0px;"/>
  <path d="M131.2,44.3h-2.5v17.6h2.5v-17.6Z" style="fill: #000; stroke-width: 0px;"/>
  <path d="M133.6,46.5h5.8v15.3h2.5v-15.3h5.8v-2.2h-14v2.2Z" style="fill: #000; stroke-width: 0px;"/>
  <path d="M157.3,52.8h-.6l-4.8-8.5h-2.6l6.4,11.3v6.2h2.5v-6.2l6.5-11.3h-2.6l-4.8,8.5Z" style="fill: #000; stroke-width: 0px;"/>
  <path d="M77.4,44.3l-6.8,17.6h2.4l1.9-5h9l1.9,5h2.4l-6.8-17.6h-4.2ZM75.7,55l3.3-8.6h.9l3.3,8.6h-7.6Z" style="fill: #000; stroke-width: 0px;"/>
  <path d="M70.3,22.4h-4.7v17.6h2.5v-15.6s.5,0,.5,0c0,0,4.9,13.4,5.3,14.5h3.7c.4-1.1,5.3-14.5,5.3-14.5h.5v15.6s2.4,0,2.4,0v-17.6h-4.7l-5.1,13.9h-.7l-5.1-13.9h0Z" style="fill: #000; stroke-width: 0px;"/>
  <path d="M129.4,22.4h-2.5v17.6h2.5v-17.6Z" style="fill: #000; stroke-width: 0px;"/>
  <path d="M95.2,22.4l-6.8,17.6h2.4l1.9-5h9l1.9,5h2.4l-6.8-17.6h-4.2ZM93.5,33.1l3.3-8.6h.9l3.3,8.6h-7.6Z" style="fill: #000; stroke-width: 0px;"/>
  <path d="M146.3,37.3h-.8l-8.2-14.9h-4.6v17.6h2.5v-15.3h.8l8.5,15.3h4.2v-17.6s-2.5,0-2.5,0v14.9Z" style="fill: #000; stroke-width: 0px;"/>
  <path d="M61.9,2.7h.8l8.5,15.3h4.2V.5s-2.5,0-2.5,0v14.9s-.8,0-.8,0L64,.5h-4.6v17.5h2.5V2.7Z" style="fill: #000; stroke-width: 0px;"/>
  <path d="M111.8.5h-2.5v17.6h2.5V.5Z" style="fill: #000; stroke-width: 0px;"/>
  <path d="M81.4,13h9l1.9,5h2.4L88,.5h-4.2l-6.8,17.6h2.4l1.9-5h0ZM85.5,2.6h.9l3.3,8.6h-7.6l3.3-8.6Z" style="fill: #000; stroke-width: 0px;"/>
  <path d="M137.5,2.7h.8l8.5,15.3h4.2V.5s-2.5,0-2.5,0v14.9h-.8l-8.2-14.9h-4.6v17.5h2.5V2.7Z" style="fill: #000; stroke-width: 0px;"/>
  <path d="M92.9,2.7h5.8v15.3h2.5V2.7h5.8V.5h-14v2.2Z" style="fill: #000; stroke-width: 0px;"/>
  <path d="M159.7.5l-6.8,17.6h2.4l1.9-5h9l1.9,5h2.4l-6.8-17.6h-4.2ZM157.9,11.2l3.3-8.6h.9l3.3,8.6h-7.6Z" style="fill: #000; stroke-width: 0px;"/>
  <path d="M174.7,15.8V.5h-2.5v17.5h10.8v-2.2h-8.3Z" style="fill: #000; stroke-width: 0px;"/>
  <path d="M160.2,33.3h5.8c0,2.9-2.5,5-6,5s-6.6-2.9-6.6-7.1,2.7-7.1,6.6-7.1,5.2,1.7,6,4.6h0c0,0,2.3-.5,2.3-.5h0c-.8-3.7-4.1-6.2-8.2-6.2h-.1c-2.4,0-4.6.9-6.2,2.5-1.7,1.7-2.6,4.1-2.6,6.7,0,2.6.9,4.9,2.6,6.7,1.6,1.6,3.8,2.5,6.2,2.5h.1c5,0,8.3-3,8.3-7.5v-1.6h-8.1v2h0Z" style="fill: #000; stroke-width: 0px;"/>
  <path d="M103.2,55.2c-.6,3.1-2.6,4.8-5.6,4.9h-.2c-3.6,0-6.1-2.8-6.2-7-.1-4.2,2.3-7.1,6-7.2h.2c2.8,0,4.8,1.5,5.5,4.2h0c0,0,2.2-.6,2.2-.6h0c-.8-3.6-4-5.9-8-5.8-2.2,0-4.3.9-5.8,2.5-1.7,1.8-2.6,4.2-2.5,6.9,0,2.7,1,5.1,2.8,6.8,1.5,1.4,3.5,2.2,5.6,2.2s.2,0,.3,0c4,0,7.1-2.7,7.7-6.6h0c0,0-2.1-.5-2.1-.5h0c0,0,0,0,0,0Z" style="fill: #000; stroke-width: 0px;"/>
  <path d="M129.9,2.5c-1.6-1.6-3.8-2.5-6.2-2.5h-.4c-2.4,0-4.6.9-6.3,2.5-1.7,1.7-2.7,4.1-2.6,6.7,0,2.6.9,5,2.6,6.7,1.6,1.6,3.9,2.5,6.3,2.5h.2c2.5,0,4.8-.8,6.4-2.5,1.7-1.7,2.7-4.1,2.6-6.7,0-2.6-.9-5-2.6-6.7h0ZM130.1,9.2c0,2.1-.6,3.9-1.8,5.1-1.2,1.3-2.9,1.9-4.9,1.9s-3.6-.6-4.9-1.9c-1.2-1.3-1.8-3.1-1.8-5.1s.6-3.9,1.8-5.1c1.2-1.3,2.9-1.9,4.9-1.9s3.6.7,4.8,1.9c1.2,1.3,1.9,3,1.9,5.1Z" style="fill: #000; stroke-width: 0px;"/>
  <polygon points="38.7 9.3 23.5 .5 8.3 9.3 9.5 11.4 22.2 4.1 22.2 18.1 24.7 18.1 24.7 4.1 37.5 11.4 38.7 9.3" style="fill: #000; stroke-width: 0px;"/>
  <polygon points="3.7 39.3 15.8 32.3 14.6 30.1 2.5 37.1 2.5 22.4 0 22.4 0 40 15.2 48.8 16.5 46.6 3.7 39.3" style="fill: #000; stroke-width: 0px;"/>
  <polygon points="44.4 22.4 44.4 37.1 32.3 30.1 31.1 32.3 43.2 39.2 30.4 46.6 31.6 48.8 46.9 40 46.9 22.4 44.4 22.4" style="fill: #000; stroke-width: 0px;"/>
</svg>